<?xml version="1.0" standalone="no"?>
<!DOCTYPE svg PUBLIC "-//W3C//DTD SVG 20010904//EN"
 "http://www.w3.org/TR/2001/REC-SVG-20010904/DTD/svg10.dtd">
<svg version="1.0" xmlns="http://www.w3.org/2000/svg"
 width="508.000000pt" height="543.000000pt" viewBox="0 0 508.000000 543.000000"
 preserveAspectRatio="xMidYMid meet">

<g transform="translate(0.000000,543.000000) scale(0.100000,-0.100000)"
fill="#000000" stroke="none">
<path d="M2802 4690 c0 -14 2 -19 5 -12 2 6 2 18 0 25 -3 6 -5 1 -5 -13z"/>
<path d="M2269 3923 c-1 -198 -30 -414 -62 -468 -6 -11 -13 -72 -15 -136 -3
-94 -1 -124 13 -155 42 -96 66 -143 75 -149 10 -6 53 56 64 95 4 14 15 41 24
60 21 46 21 220 -1 273 -9 19 -19 62 -23 94 -4 32 -13 76 -21 98 -9 25 -16
106 -20 223 -5 143 -9 182 -20 182 -10 0 -13 -26 -14 -117z"/>
<path d="M406 2325 c-8 -8 -24 -15 -35 -15 -11 0 -25 -9 -31 -19 -15 -28 -12
-35 6 -20 9 8 35 21 57 29 22 8 42 21 45 28 5 17 -23 15 -42 -3z"/>
<path d="M562 2000 c-54 -22 -48 -112 24 -330 44 -133 62 -159 133 -191 48
-22 59 -33 80 -75 13 -27 36 -76 52 -108 16 -33 29 -63 29 -68 0 -12 42 -71
58 -81 6 -4 12 -14 12 -20 0 -14 39 -51 46 -44 2 2 -4 15 -14 28 -36 47 -92
129 -92 136 0 10 -30 76 -71 157 -36 71 -56 89 -112 101 -30 6 -86 84 -87 121
0 12 -7 27 -15 34 -8 7 -15 25 -15 41 0 15 -9 52 -20 80 -12 29 -19 58 -16 64
2 7 1 29 -4 50 -12 55 4 95 40 95 15 0 33 -7 40 -15 16 -19 31 -20 24 -1 -5
13 -47 37 -62 35 -4 0 -17 -4 -30 -9z"/>
<path d="M4200 1909 c-25 -10 -59 -46 -60 -63 0 -6 13 2 28 17 21 21 38 27 71
27 38 0 43 -3 55 -32 16 -40 2 -138 -32 -231 -12 -32 -22 -66 -22 -76 0 -10
-6 -24 -14 -30 -8 -7 -17 -24 -21 -39 -11 -44 -65 -122 -89 -127 -11 -2 -42
-7 -67 -10 -44 -6 -49 -9 -85 -68 -45 -72 -104 -184 -104 -197 0 -5 -9 -20
-21 -32 -107 -118 -125 -144 -96 -133 24 10 113 127 155 206 24 44 58 104 77
133 31 49 38 54 79 60 25 4 48 11 51 17 4 5 15 9 25 9 19 0 80 77 80 100 0 6
9 28 20 48 70 132 124 328 101 371 -23 42 -87 66 -131 50z"/>
<path d="M782 1710 c0 -14 2 -19 5 -12 2 6 2 18 0 25 -3 6 -5 1 -5 -13z"/>
<path d="M782 1630 c0 -19 2 -27 5 -17 2 9 2 25 0 35 -3 9 -5 1 -5 -18z"/>
<path d="M1157 1625 c-37 -13 -58 -25 -43 -25 4 0 16 4 26 10 10 5 43 14 72
19 42 7 46 9 18 9 -19 1 -52 -5 -73 -13z"/>
<path d="M1059 1583 c-12 -16 -12 -17 1 -7 8 6 22 14 30 17 13 5 12 6 -1 6 -9
1 -23 -7 -30 -16z"/>
<path d="M3425 1541 c39 -4 84 -15 102 -24 18 -9 38 -17 45 -17 7 1 -5 10 -27
22 -28 15 -62 22 -115 24 l-75 3 70 -8z"/>
<path d="M976 1519 c-15 -12 -25 -23 -23 -26 3 -2 17 7 32 21 34 31 28 34 -9
5z"/>
<path d="M3270 1529 c0 -5 5 -7 10 -4 6 3 10 8 10 11 0 2 -4 4 -10 4 -5 0 -10
-5 -10 -11z"/>
<path d="M831 1500 c14 -31 19 -36 19 -24 0 6 -7 19 -16 30 -14 18 -14 18 -3
-6z"/>
<path d="M3591 1497 c2 -2 18 -11 34 -21 l30 -17 -24 20 c-13 12 -28 21 -34
21 -6 0 -8 -1 -6 -3z"/>
<path d="M851 1444 c0 -11 3 -14 6 -6 3 7 2 16 -1 19 -3 4 -6 -2 -5 -13z"/>
<path d="M920 1439 c-6 -11 -10 -25 -8 -30 2 -5 8 4 15 21 13 34 9 40 -7 9z"/>
<path d="M3660 1458 c3 -2 30 -26 60 -53 54 -49 54 -49 15 -6 -22 23 -49 47
-60 53 -11 6 -18 9 -15 6z"/>
<path d="M875 1392 c10 -17 22 -29 27 -26 13 9 9 18 -19 38 l-26 19 18 -31z"/>
<path d="M3920 1355 c-7 -9 -10 -18 -7 -21 3 -3 10 4 17 15 13 25 8 27 -10 6z"/>
<path d="M3790 1321 c0 -5 5 -13 10 -16 6 -3 10 -2 10 4 0 5 -4 13 -10 16 -5
3 -10 2 -10 -4z"/>
<path d="M1872 1273 c22 -26 40 -111 33 -155 -8 -47 9 -51 24 -5 11 34 7 58
-24 135 -10 24 -24 42 -33 42 -13 0 -13 -2 0 -17z"/>
<path d="M3870 1255 c-7 -8 -19 -15 -26 -15 -15 0 -19 -12 -7 -23 5 -6 53 37
53 49 0 8 -8 4 -20 -11z"/>
<path d="M2690 1230 c0 -5 5 -10 10 -10 6 0 10 5 10 10 0 6 -4 10 -10 10 -5 0
-10 -4 -10 -10z"/>
</g>
</svg>
