<?xml version="1.0" standalone="no"?>
<!DOCTYPE svg PUBLIC "-//W3C//DTD SVG 20010904//EN"
 "http://www.w3.org/TR/2001/REC-SVG-20010904/DTD/svg10.dtd">
<svg version="1.0" xmlns="http://www.w3.org/2000/svg"
 width="848.000000pt" height="631.000000pt" viewBox="0 0 848.000000 631.000000"
 preserveAspectRatio="xMidYMid meet">

<g transform="translate(0.000000,631.000000) scale(0.100000,-0.100000)"
fill="#000000" stroke="none">
<path d="M4279 6282 c-213 -71 -562 -310 -895 -612 -149 -136 -231 -228 -406
-455 -174 -226 -213 -283 -406 -593 -176 -284 -178 -287 -297 -403 -66 -64
-150 -143 -186 -175 -439 -392 -483 -435 -727 -714 -331 -380 -398 -443 -650
-608 -177 -117 -268 -159 -369 -172 -95 -11 -128 -25 -171 -74 -37 -42 -52
-91 -45 -143 4 -35 1 -41 -42 -77 -73 -60 -93 -133 -60 -213 33 -79 91 -113
192 -113 172 -1 407 -44 763 -142 319 -87 400 -108 571 -143 206 -42 426 -80
588 -100 68 -8 126 -17 129 -19 2 -3 5 -53 7 -113 4 -149 31 -227 102 -296 81
-78 257 -108 410 -69 104 26 160 59 319 185 140 112 259 194 394 274 l85 50
340 27 c187 15 444 32 570 37 127 5 320 16 430 24 110 8 274 18 365 21 l166 7
17 -26 c9 -14 83 -153 165 -309 82 -155 166 -312 187 -348 50 -87 195 -228
425 -415 405 -330 503 -401 635 -465 126 -60 190 -74 340 -73 161 0 229 17
444 110 l153 66 57 -17 c31 -10 94 -39 141 -64 247 -133 246 -133 321 -107 67
24 102 66 120 143 11 49 -14 121 -53 158 -35 32 -145 98 -262 156 l-68 34 1
434 c1 239 5 439 9 444 3 6 10 297 14 646 5 349 11 785 14 968 7 381 -9 336
121 346 88 7 119 18 162 59 62 59 76 128 42 202 -41 90 -101 117 -235 108
l-96 -6 -42 45 c-66 70 -130 83 -214 44 -61 -28 -93 -74 -103 -149 -7 -48 -13
-57 -75 -117 -81 -77 -197 -237 -340 -469 -347 -563 -554 -804 -794 -925 -104
-52 -217 -66 -683 -82 l-196 -7 -95 164 c-53 90 -155 262 -227 383 -72 120
-131 224 -131 231 0 8 60 -14 156 -57 233 -104 343 -120 450 -65 67 34 107 79
143 159 36 80 43 104 81 273 57 256 62 476 20 916 -10 112 -24 283 -30 379
-12 196 -21 268 -50 418 -47 237 -82 297 -330 563 -100 107 -178 203 -241 296
-103 151 -250 313 -340 374 -89 60 -223 115 -389 159 -192 51 -314 60 -401 32z
m302 -387 c157 -40 218 -66 302 -129 71 -53 102 -89 207 -241 97 -141 136
-189 288 -350 127 -134 195 -223 216 -283 24 -66 55 -287 66 -467 6 -93 20
-264 32 -380 14 -143 21 -283 21 -440 1 -214 -1 -239 -27 -359 -32 -152 -41
-176 -60 -176 -28 0 -179 71 -237 111 -59 42 -74 59 -208 242 -39 54 -104 132
-144 175 -40 42 -112 121 -161 174 -98 109 -126 123 -215 116 l-56 -5 -75 110
c-263 388 -535 638 -870 801 -103 50 -107 51 -195 50 -78 0 -107 -6 -218 -42
-70 -23 -130 -42 -133 -42 -17 0 74 126 269 373 158 200 381 399 688 615 143
101 292 182 337 182 18 0 96 -16 173 -35z m-1052 -1446 c115 -65 299 -196 375
-269 131 -124 273 -312 439 -581 35 -57 180 -309 322 -559 142 -250 327 -571
411 -712 84 -142 154 -265 156 -275 3 -16 -14 -19 -182 -30 -243 -15 -525 -30
-734 -39 l-168 -7 12 24 c7 13 25 40 41 60 81 103 219 375 219 431 0 113 -113
205 -222 182 -37 -8 -48 -6 -78 14 -19 13 -39 37 -45 55 -14 45 -55 65 -97 49
-29 -11 -34 -10 -43 4 -52 85 -91 119 -152 130 -45 9 -94 -7 -170 -53 -58 -36
-375 -278 -648 -497 -66 -53 -128 -96 -137 -96 -17 0 -18 25 -18 383 0 266 5
433 15 543 27 285 64 569 91 708 31 154 28 183 -26 251 -36 45 -34 48 53 107
82 56 452 206 511 207 11 1 44 -13 75 -30z m-1028 -806 c-54 -445 -61 -555
-61 -1010 0 -488 -1 -481 72 -545 37 -33 41 -39 28 -51 -8 -8 -35 -19 -60 -26
-31 -9 -61 -29 -95 -63 l-50 -50 -74 6 c-242 20 -746 117 -1046 201 -110 31
-274 75 -365 97 -91 22 -171 43 -179 48 -10 6 0 16 40 38 227 128 426 269 567
405 52 51 199 212 327 358 223 255 305 337 588 593 125 113 130 116 175 116
33 0 63 9 97 28 28 16 51 27 53 26 2 -1 -6 -78 -17 -171z m5245 -785 c-9 -184
-27 -1267 -32 -1862 l-3 -430 -132 -58 c-214 -95 -239 -102 -359 -102 -121 0
-140 6 -264 88 -82 53 -525 404 -677 535 -46 39 -97 96 -127 141 -50 75 -254
456 -267 497 -8 29 -1 30 205 38 343 12 457 34 633 121 282 139 542 426 877
969 96 155 137 215 147 215 3 0 3 -69 -1 -152z"/>
<path d="M1955 2711 c-103 -48 -142 -149 -94 -249 56 -114 213 -134 298 -37
26 30 51 89 51 120 0 62 -53 138 -115 166 -51 23 -89 23 -140 0z"/>
</g>
</svg>
